<svg version="1.0" xmlns="http://www.w3.org/2000/svg" width="346.667" height="346.667" viewBox="0 0 260 260"><path d="M0 130v130h260V0H0v130zm94.5-41.5c12.1 4 23.7 15.8 27.5 28.1 4.1 13.4 1.7 28.1-6.3 39.1-5 6.8-9.6 10.4-17.3 14-26.4 12.1-56.7-4.1-61.7-33.1-3.7-21.5 10.5-42.9 32.4-49.1 6.6-1.8 18.2-1.4 25.4 1zm96-1c22.2 5.8 36.5 27.5 32.7 49.7-4.1 23.6-27 40-50.4 36-21.5-3.7-36.8-21.6-36.8-43.2 0-28.4 27.1-49.6 54.5-42.5z"/><path d="M80.7 101.4c-6.6 1.8-12.6 6.2-16.2 12-2.4 4-3 6.2-3.3 12.1-.6 11.5 4.2 20 14 24.9 14.4 7.2 32.2-.3 37.1-15.5 2.1-6.4 2.1-9.1.1-15.8-3.8-12.9-18.7-21.2-31.7-17.7zm20.8 6.2c1.8 1.8 1.6 3.3-.7 4.7-3.5 2.2-6.6-2.1-3.6-5.1 1.6-1.6 2.3-1.5 4.3.4zM182 101c-8.7 1.9-14.7 6.5-18.7 14.4-5.1 9.9-2.8 23.1 5.4 30.8 10.1 9.6 29.1 8.9 37.9-1.5 9-10.7 8.4-27.9-1.2-36.9-5.7-5.3-16.3-8.4-23.4-6.8zm18.8 5.9c.8.4 1.2 1.9 1 3.2-.2 1.8-.9 2.4-2.8 2.4-2.8 0-3.9-2.7-2-5 1.4-1.7 2-1.8 3.8-.6z"/></svg>