<?xml version="1.0" encoding="UTF-8"?><svg id="Capa_1" xmlns="http://www.w3.org/2000/svg" viewBox="0 0 1017.64 358.27"><polygon points="183.92 299.28 176.4 358.27 99.61 358.27 100.35 350.9 105.49 305.34 105.88 299.28 183.92 299.28"/><polygon points="264.91 299.28 257.39 358.27 188.53 358.27 196.07 299.28 264.91 299.28"/><polygon points="355.97 299.28 348.45 358.27 269.52 358.27 277.06 299.28 355.97 299.28"/><polygon points="830.28 77.06 798.61 358.27 360.58 358.27 368.12 299.28 703.45 299.28 704.81 287.2 645.69 287.2 653.87 214.41 634.75 214.41 641.64 153.08 662.43 153.08 670.99 77.06 741.51 77.06 724.5 227.94 736.67 227.94 753.66 77.06 830.28 77.06"/><polygon points="630.85 141 621.22 226.51 640.36 226.51 633.52 287.2 545.94 287.2 578.29 0 645.5 0 636.81 77.06 658.82 77.06 651.64 141 630.85 141"/><polygon points="566.14 0 558.82 64.98 481.44 64.98 488.76 0 566.14 0"/><polygon points="557.44 77.06 533.79 287.2 456.41 287.2 480.06 77.06 557.44 77.06"/><polygon points="476.59 0 444.24 287.2 369.77 287.2 402.1 0 476.59 0"/><path d="M211.15,77.06l-11.94,106.04H119.24l-11.72,104.1h250.07l23.66-210.14H211.15Zm73.15,150.89h-12.17l10.34-91.72h12.17l-10.34,91.72Z"/><polygon points="199 77.06 188.42 171.01 120.6 171.01 124.51 136.22 112.35 136.22 87.36 358.27 14.97 358.27 23.82 280 46.66 77.06 199 77.06"/></svg>