<?xml version="1.0" standalone="no"?>
<!DOCTYPE svg PUBLIC "-//W3C//DTD SVG 20010904//EN"
 "http://www.w3.org/TR/2001/REC-SVG-20010904/DTD/svg10.dtd">
<svg version="1.0" xmlns="http://www.w3.org/2000/svg"
 width="246.000000pt" height="106.000000pt" viewBox="0 0 246.000000 106.000000"
 preserveAspectRatio="xMidYMid meet">

<g transform="translate(0.000000,106.000000) scale(0.100000,-0.100000)"
fill="#000000" stroke="none">
<path d="M1141 663 c-24 -219 -46 -410 -48 -425 l-5 -28 111 0 c61 0 111 2
111 5 0 2 20 182 45 399 25 218 45 407 45 421 l0 25 -108 0 -107 0 -44 -397z"/>
<path d="M1437 1018 c-3 -24 -9 -67 -12 -95 l-7 -53 115 0 114 0 7 63 c4 34 9
77 13 95 l5 32 -115 0 -115 0 -5 -42z"/>
<path d="M1662 673 c-24 -214 -46 -405 -49 -425 l-6 -38 131 0 130 0 7 73 c3
39 9 80 11 90 4 13 -1 17 -25 17 -28 0 -30 3 -26 27 5 29 25 202 25 216 0 4
13 7 29 7 31 0 29 -6 47 138 l7 52 -33 0 -33 0 7 63 c4 34 10 86 13 115 l6 52
-99 0 -99 0 -43 -387z"/>
<path d="M136 808 c-8 -35 -86 -749 -86 -780 l0 -28 105 0 c80 0 105 3 105 13
0 7 16 149 35 316 19 166 35 308 35 316 0 8 8 15 18 15 16 0 18 -7 14 -55 l-4
-55 99 0 100 0 12 127 c8 70 16 133 18 140 4 10 -41 13 -221 13 l-226 0 -4
-22z"/>
<path d="M611 723 c-6 -60 -14 -129 -18 -155 l-6 -48 -117 0 -117 0 -12 -107
c-6 -60 -14 -129 -18 -155 l-6 -48 370 0 369 0 32 293 c18 160 32 300 32 310
0 16 -19 17 -249 17 l-248 0 -12 -107z m255 -80 c-2 -10 -10 -73 -17 -140 -11
-111 -14 -123 -31 -123 -16 0 -19 5 -14 28 3 15 10 78 17 140 10 100 14 112
31 112 14 0 18 -5 14 -17z"/>
<path d="M1382 533 c-18 -164 -33 -304 -32 -311 0 -10 26 -12 112 -10 l113 3
32 285 c17 157 32 295 32 308 1 22 -1 22 -112 22 l-112 0 -33 -297z"/>
<path d="M1976 813 c-2 -10 -7 -52 -11 -93 -9 -104 -12 -110 -44 -110 -27 0
-29 -2 -35 -62 -4 -35 -9 -78 -13 -95 -5 -32 -4 -33 27 -33 25 0 30 -3 26 -17
-2 -10 -8 -49 -11 -88 -4 -38 -9 -78 -11 -87 -5 -15 6 -18 85 -20 68 -2 88 -6
83 -15 -6 -9 -127 -13 -499 -15 l-491 -3 -6 -73 c-4 -40 -9 -79 -13 -87 -4
-13 78 -15 644 -15 l648 0 44 398 c23 218 45 405 48 415 4 15 -6 17 -111 17
-69 0 -116 -4 -116 -10 0 -16 -40 -373 -46 -407 -6 -41 -34 -45 -34 -5 0 15 9
104 20 197 11 94 20 182 20 198 l0 27 -99 0 c-86 0 -100 -2 -105 -17z"/>
<path d="M368 173 l-57 -4 -6 -67 c-4 -37 -9 -75 -11 -84 -5 -16 5 -18 109
-18 l115 0 5 28 c3 15 9 55 13 90 l7 62 -59 -2 c-33 -1 -85 -3 -116 -5z"/>
<path d="M576 153 c-2 -10 -8 -48 -12 -85 l-6 -68 100 0 100 0 6 48 c4 26 9
64 12 85 l6 37 -100 0 c-87 0 -101 -2 -106 -17z"/>
<path d="M817 163 c-3 -5 -8 -43 -12 -85 l-7 -78 115 0 115 0 6 58 c4 31 9 69
12 85 l6 27 -116 0 c-63 0 -117 -3 -119 -7z"/>
</g>
</svg>
