<svg width="282" height="281.27" xmlns="http://www.w3.org/2000/svg">
 <g>
  <title>Layer 1</title>
  <g id="svg_5">
   <path id="svg_9" d="m111.54,0l-11.94,106.04l-79.97,0l-11.72,104.1l250.07,0l23.66,-210.14l-170.1,0zm73.15,150.89l-12.17,0l10.34,-91.72l12.17,0l-10.34,91.72z"/>
   <g id="svg_4">
    <polygon id="svg_1" points="84.30999755859375,222.22000122070312 76.78999328613281,281.2099914550781 0,281.2099914550781 0.7399978041648865,273.8399963378906 5.879997253417969,228.27999877929688 6.269996643066406,222.22000122070312 84.30999755859375,222.22000122070312 "/>
    <polygon id="svg_2" points="165.3000030517578,222.22000122070312 157.78001403808594,281.2099914550781 88.91999816894531,281.2099914550781 96.46000671386719,222.22000122070312 165.3000030517578,222.22000122070312 "/>
    <polygon id="svg_3" points="256.3599853515625,222.22000122070312 248.84002685546875,281.2099914550781 169.9099884033203,281.2099914550781 177.4499969482422,222.22000122070312 256.3599853515625,222.22000122070312 "/>
   </g>
  </g>
 </g>

</svg>