<svg width="815.64" height="358.27" xmlns="http://www.w3.org/2000/svg">
 <g>
  <title>Layer 1</title>
  <polygon points="168.9199981689453,299.2799987792969 161.39999389648438,358.2699890136719 84.61000061035156,358.2699890136719 85.3499984741211,350.8999938964844 90.48999786376953,305.3399963378906 90.87999725341797,299.2799987792969 168.9199981689453,299.2799987792969 " id="svg_1"/>
  <polygon points="249.91000366210938,299.2799987792969 242.3900146484375,358.2699890136719 173.52999877929688,358.2699890136719 181.07000732421875,299.2799987792969 249.91000366210938,299.2799987792969 " id="svg_2"/>
  <polygon points="340.9700012207031,299.2799987792969 333.45001220703125,358.2699890136719 254.51998901367188,358.2699890136719 262.05999755859375,299.2799987792969 340.9700012207031,299.2799987792969 " id="svg_3"/>
  <polygon points="815.280029296875,77.05999755859375 783.6099853515625,358.2699890136719 345.5799865722656,358.2699890136719 353.1199951171875,299.2799987792969 688.4500122070312,299.2799987792969 689.8099975585938,287.20001220703125 630.6900024414062,287.20001220703125 638.8699951171875,214.41000366210938 619.75,214.41000366210938 626.6400146484375,153.0800018310547 647.4299926757812,153.0800018310547 655.989990234375,77.05999755859375 726.510009765625,77.05999755859375 709.5,227.94000244140625 721.6699829101562,227.94000244140625 738.6599731445312,77.05999755859375 815.280029296875,77.05999755859375 " id="svg_4"/>
  <polygon points="615.8499755859375,141 606.219970703125,226.50999450683594 625.3599853515625,226.50999450683594 618.52001953125,287.20001220703125 530.9400024414062,287.20001220703125 563.2899780273438,0 630.5,0 621.8099975585938,77.05999755859375 643.8200073242188,77.05999755859375 636.6400146484375,141 615.8499755859375,141 " id="svg_5"/>
  <polygon points="551.1400146484375,0 543.8200073242188,64.9800033569336 466.44000244140625,64.9800033569336 473.760009765625,0 551.1400146484375,0 " id="svg_6"/>
  <polygon points="542.4400024414062,77.05999755859375 518.7899780273438,287.20001220703125 441.4100036621094,287.20001220703125 465.05999755859375,77.05999755859375 542.4400024414062,77.05999755859375 " id="svg_7"/>
  <polygon points="461.5899963378906,0 429.239990234375,287.20001220703125 354.7699890136719,287.20001220703125 387.1000061035156,0 461.5899963378906,0 " id="svg_8"/>
  <path d="m196.15,77.06l-11.94,106.04l-79.97,0l-11.72,104.1l250.07,0l23.66,-210.14l-170.1,0zm73.15,150.89l-12.17,0l10.34,-91.72l12.17,0l-10.34,91.72z" id="svg_9"/>
  <polygon points="184,77.05999755859375 173.4199981689453,171.00999450683594 105.5999984741211,171.00999450683594 109.51000213623047,136.22000122070312 97.3499984741211,136.22000122070312 72.36000061035156,358.2699890136719 -0.029999732971191406,358.2699890136719 8.819999694824219,280 31.65999984741211,77.05999755859375 184,77.05999755859375 " id="svg_10"/>
 </g>

</svg>